<svg xmlns="http://www.w3.org/2000/svg" viewBox="0 0 56 56"><path d="M53.9 23.7C52.6 18.9 40 18.2 25.7 22 11.4 25.8.8 32.8 2.1 37.6c1.3 4.8 13.9 5.5 28.2 1.7 14.3-3.8 24.9-10.8 23.6-15.6zM25 19.6c1.8-.5 2.9-2.1 2.5-3.6-.4-1.5-2.2-2.3-4-1.9-1.8.5-2.9 2.1-2.5 3.6.4 1.5 2.2 2.3 4 1.9zm8.6-1.7c1.9-.5 1.4-2.3-.4-3.5-1.2-.8-2.8-1.2-3.7-.9-1 .3-1.5 1.1-.9 2.1.7 1.5 3.2 2.8 5 2.3zm-16.9 4.7c2-.5 3.5-3 3.4-4.8-.1-1.2-.9-1.8-2-1.5s-2.3 1.4-3 2.8c-.9 2-.5 4 1.5 3.4z" fill="#E8E7E4"/><path d="M2.6 34.2c-.1.2-.2.4-.3.5.1-.1.2-.3.3-.5zm0 0c.2-.3.6-.7.9-1.1-.4.4-.7.8-.9 1.1zm23.1-12c15-4 22.8-2.4 25.5-1.4-3.2-1.2-10-2.1-13.4-4-3.2-1.8-6.5-7.4-14.9-5.2-8.4 2.3-8.4 8.6-10.3 12-1.6 2.8-6.5 6.8-9 9.5C6 30.6 12 25.9 25.8 22.2zm4.2-8.2c.8-.2 2 0 3 .7 1.4 1 1.8 2.4.3 2.8s-3.4-.7-4-1.8c-.4-.8 0-1.5.7-1.7zm-6.2 1.1c1.3-.3 2.6.3 2.9 1.3.3 1.1-.5 2.2-1.8 2.6s-2.6-.3-2.9-1.3c-.3-1.1.5-2.2 1.8-2.6zm-8.1 4.3c.5-1.1 1.5-1.9 2.2-2.1s1.5.2 1.5 1.1c.1 1.3-1.1 3.2-2.6 3.6-1.5.4-1.9-1.1-1.2-2.6zM53.1 25c-1-3.8-12.9-3.6-26.7.1-13.8 3.7-24.2 9.5-23.2 13.3.7 2.6 6.7 4.1 14.7 3.6 3.3.3 7.8-.2 12.6-1.5s8.9-3.1 11.6-5c7.2-3.6 11.7-7.9 11-10.5zM30 38.7c-6 1.6-11 2-11.4.5-.4-1.5 4.1-4 10.1-5.6 6-1.6 11.1-1.7 11.5-.2.4 1.5-4.2 3.7-10.2 5.3zM51.7 21c.2.1.3.1.4.2-.1-.1-.2-.1-.4-.2z" fill="#4975B9"/><path d="M51.7 21c.2.1.3.1.4.2-.1-.1-.2-.1-.4-.2zm1.4 3.9c-1-3.6-11.8-3.6-24.8-.4-12.7 4.3-21.5 9.9-20.5 13.9.4 1.6 2.5 2.8 5.6 3.6 4.7.2 10.7-.5 17-2.1C44.2 36.2 54.2 28.8 53.2 25zm-2-4.2c-3.2-1.2-10-2.1-13.4-4-2.5-1.4-5.1-5.1-10.1-5.6.1.5.1.9.1 1.4 0 5-3 9.3-7.3 11.2 1.6-.5 3.3-1.1 5.2-1.6 15-4 22.8-2.4 25.5-1.4zm-21.2-6.8c.8-.2 2 0 3 .7 1.4 1 1.8 2.4.3 2.8s-3.4-.7-4-1.8c-.4-.8 0-1.5.7-1.7z" opacity=".2"/></svg>