<svg xmlns="http://www.w3.org/2000/svg" viewBox="0 0 48 48" xmlns:xlink="http://www.w3.org/1999/xlink"><defs><linearGradient x1="26.3" y1="33.6" x2="33.4" y2="26.5" id="7" gradientUnits="userSpaceOnUse" xlink:href="#2"/><linearGradient x1="40.6" y1="21" x2="27" y2="7.4" id="B" gradientUnits="userSpaceOnUse" xlink:href="#1"/><linearGradient x1="28" y1="39.5" x2="39" y2="28.4" id="8" gradientUnits="userSpaceOnUse" xlink:href="#2"/><linearGradient x1="14.2" y1="21.9" x2="21.9" y2="14.2" id="A" gradientUnits="userSpaceOnUse" xlink:href="#4"/><linearGradient x1="8.1" y1="20.3" x2="20.3" y2="8.1" id="9" gradientUnits="userSpaceOnUse" xlink:href="#4"/><linearGradient x1="34" y1="22.4" x2="25.6" y2="13.7" id="6" gradientUnits="userSpaceOnUse" xlink:href="#1"/><linearGradient x1="9.1" y1="28.7" x2="20.8" y2="40" id="0" gradientUnits="userSpaceOnUse" xlink:href="#5"/><linearGradient x1="3.4" y1="30.7" x2="19.3" y2="46.6" id="5" gradientUnits="userSpaceOnUse"><stop/><stop offset="1" stop-opacity=".8"/></linearGradient><linearGradient x1="47" y1="19.6" x2="28.4" y2="1" id="1" gradientUnits="userSpaceOnUse"><stop stop-opacity=".5"/><stop offset="1" stop-opacity=".3"/></linearGradient><linearGradient x1="14.8" y1="26.7" x2="22" y2="34" id="3" gradientUnits="userSpaceOnUse" xlink:href="#5"/><linearGradient x1="2" y1="18.6" x2="18.6" y2="2" id="4" gradientUnits="userSpaceOnUse"><stop stop-opacity="0"/><stop offset="1" stop-opacity=".3"/></linearGradient><linearGradient x1="29.9" y1="45.5" x2="45" y2="30" id="2" gradientUnits="userSpaceOnUse"><stop stop-opacity=".8"/><stop offset="1" stop-opacity=".5"/></linearGradient></defs><g fill-rule="evenodd"><path d="m24 44.85v3.15c-6.15.01-12.29-2.34-16.98-7-4.68-4.69-7-10.82-7-16.96h3.2c0 5.33 2.03 10.67 6.09 14.74 4.06 4.07 9.39 6.11 14.71 6.11" fill="url(#5)"/><path d="m40.96 40.96c-4.69 4.69-10.82 7-16.96 7v-3.15c5.33 0 10.67-2.04 14.74-6.11 4.07-4.07 6.1-9.41 6.1-14.74h3.16c-.01 6.14-2.35 12.28-7 16.96" fill="url(#2)"/><path d="m44.85 24c0-5.32-2.03-10.65-6.1-14.71-4.07-4.06-9.41-6.09-14.74-6.09v-3.2c6.14.01 12.28 2.35 16.96 7 4.7 4.69 7 10.83 7 16.98h-3.16" fill="url(#1)"/><path d="m24 3.2c-5.32 0-10.65 2.03-14.71 6.09-4.06 4.06-6.09 9.39-6.09 14.71h-3.2c-.01-6.15 2.33-12.29 7-16.98 4.69-4.69 10.83-7 16.98-7v3.2" fill="url(#4)"/><path d="m24 35.2c-2.87 0-5.74-1.09-7.93-3.29-2.18-2.19-3.27-5.1-3.28-7.91h3.18c0 2.05.78 4.1 2.34 5.66 1.57 1.57 3.62 2.35 5.67 2.34v3.19" fill="url(#3)"/><path d="m24 38.4v3.22c-4.51.01-9-1.71-12.45-5.16-3.43-3.43-5.14-7.93-5.15-12.44h3.21c.01 3.68 1.41 7.36 4.21 10.16 2.81 2.82 6.5 4.23 10.19 4.22" fill="url(#0)"/><path d="m24 35.2v-3.19c2.05 0 4.1-.78 5.66-2.34 1.57-1.57 2.35-3.61 2.35-5.66h3.19c-.01 2.87-1.1 5.73-3.28 7.91-2.18 2.19-5.1 3.28-7.92 3.29" fill="url(#7)"/><path d="m24 12.8c2.87 0 5.73 1.09 7.92 3.27 2.2 2.19 3.29 5.06 3.28 7.93h-3.19c0-2.04-.78-4.08-2.35-5.63-1.56-1.55-3.61-2.33-5.66-2.34v-3.23" fill="url(#6)"/><path d="m24 9.61v-3.21c4.5.01 9 1.72 12.44 5.15 3.45 3.44 5.17 7.95 5.16 12.45h-3.22c.01-3.68-1.4-7.37-4.22-10.18-2.81-2.8-6.48-4.2-10.16-4.21" fill="url(#B)"/><path d="m24 12.8v3.23c-2.05 0-4.1.78-5.67 2.34-1.56 1.56-2.34 3.59-2.34 5.63h-3.18c-.01-2.87 1.09-5.74 3.27-7.93 2.19-2.19 5.06-3.28 7.93-3.28" fill="url(#A)"/><path d="m24 6.4v3.21c-3.68-.01-7.37 1.39-10.19 4.21-2.81 2.81-4.21 6.5-4.21 10.18h-3.21c-.01-4.51 1.71-9 5.15-12.45 3.44-3.44 7.95-5.15 12.45-5.15" fill="url(#9)"/><path d="m24 41.6v-3.22c3.68-.01 7.36-1.41 10.16-4.22 2.81-2.8 4.21-6.48 4.22-10.16h3.22c-.01 4.5-1.73 9-5.16 12.44-3.44 3.44-7.94 5.16-12.44 5.16" fill="url(#8)"/></g></svg>