<svg xmlns="http://www.w3.org/2000/svg" viewBox="0 0 56 56"><circle cx="28" cy="27" r="20" fill="#F6F5F3"/><path d="M28 7c-2.3 0-4.4.4-6.4 1.1 1.3-.3 2.7-.5 4.2-.5A17.6 17.6 0 1 1 8.1 25.2C8 25.8 8 26.4 8 27A20 20 0 1 0 28 7" opacity=".1"/><path d="M44.6 12.9c-1.9-2.1-6.2-3.5-13.7 1.4-4.3 2.8-7.7 6.4-7.7 6.4s-7.4-5.2-7.2-9.5c-.9.1-6.6.6-5.9 7.5.8 5.6 8 10.5 8.4 10.9.1 4.8.6 8.6 1.6 11.8 1.3 3.9 4.2 6.6 8.2 6.6 2.4 0 4.5-1.6 5.1-2.2-2.3-1-4.5-2.2-4.9-16.1 5.1-6.6 13.9-12.3 17.4-11.4 0-.6.4-3.4-1.4-5.3z" fill="#d00"/><path d="M30.5 43.1c-1.8.6-3.7.9-5.7.9-1.3 0-2.5-.1-3.7-.4 1.5 2.7 4 4.4 7.2 4.4 2.4 0 4.5-1.6 5.1-2.2-1.1-.4-2.1-.9-2.9-2.7zm14.1-30.2c-1.1-1.3-3.2-2.3-6.2-1.8a19 19 0 0 1 4.6 7.5c1.2-.4 2.2-.5 3-.3 0-.6.4-3.4-1.4-5.3z" opacity=".1"/></svg>