<svg xmlns="http://www.w3.org/2000/svg" width="95" height="37" viewBox="0 0 9500 3700"><path d="M3214 1085h-275c-22 0-36 17-36 31v834h-511v-834c0-22-9-31-31-31h-275c-22 0-35 13-35 31v2122c0 22 9 35 31 35h280c18 0 31-13 31-35v-1013h511v1013c0 22 13 35 36 35h275c22 0 31-17 31-35v-2122c0-17-14-31-31-31zm6249 1899c-4-13-9-17-22-17-22 0-142 48-315 48-337 0-502-319-502-825 0-445 138-886 369-886 62 0 138 17 257 127 13 13 22 17 36 17s27-9 40-31l120-192c9-13 13-27 13-40 0-18-18-31-44-44-182-92-306-109-413-109-417 0-741 489-741 1253 0 659 311 1039 755 1039 187 0 386-87 466-144 18-13 22-31 18-48l-36-149zm-1894-913l533-956c9-13 5-31-13-31h-262c-76 0-102 26-129 83l-400 817c-22 48-44 79-67 92v-961c0-17-9-31-27-31h-289c-13 0-27 13-27 31v2126c0 13 9 31 27 31h289c18 0 27-13 27-31v-1096c13 9 22 22 31 39l506 1022c27 52 67 65 124 65h284c18 0 22-17 13-31l-622-1170zm-2544 926h-53c-67 0-84-26-84-79v-1803c0-22-9-31-27-31h-888c-22 0-36 13-36 31v157c0 528-31 1209-315 1724h-98c-27 0-36 13-36 35v638c0 22 18 31 31 31h213c49 0 67-35 67-65v-363h950v397c0 17 13 31 31 31h227c27 0 53-22 53-65v-603c0-22-13-35-36-35zm-480 0h-644c227-380 315-808 346-1331 9-114 13-231 13-306h284v1637zm1385-1964c-479 0-693 594-693 1240 0 659 302 1052 746 1052 218 0 409-83 506-144 18-9 22-22 18-39l-36-148c-5-17-13-26-36-26-18 0-146 48-329 48-342 0-502-292-502-677v-103s173 20 275 20h648v-183c0-677-245-1039-600-1039zm-49 947c-102 0-262 18-262 18s0-66 9-136c40-371 133-559 289-559 142 0 231 192 253 528 5 70 5 148 5 148h-293z"/><path fill="#F00" d="M1545 0h-506c-497 0-919 371-919 1092 0 432 204 751 568 908l-679 1205c-22 39 0 70 35 70h315c27 0 44-9 53-31l617-1183h222v1183c0 13 13 31 31 31h275c27 0 36-13 36-35v-3196c0-31-18-44-49-44zm-293 1781h-187c-293 0-577-210-577-734 0-546 266-768 537-768h227v1502z"/></svg>